<mxfile host="drawio-plugin" modified="2023-09-22T09:16:39.003Z" agent="5.0 (Windows NT 10.0; Win64; x64) AppleWebKit/537.36 (KHTML, like Gecko) Chrome/111.0.0.0 Safari/537.36" etag="jpbtSBGK3T1NSi324dXv" version="20.5.3" type="embed" pages="5"><diagram name="Architecture" id="17ScgUcGnw9kMPdYQ0jm"><mxGraphModel dx="1069" dy="1053" grid="1" gridSize="10" guides="1" tooltips="1" connect="1" arrows="1" fold="1" page="0" pageScale="1" pageWidth="827" pageHeight="1169" background="none" math="0" shadow="0"><root><mxCell id="0"/><mxCell id="1" parent="0"/><mxCell id="cXwkYd20uXq4Kvx39tCG-18" value="" style="rounded=0;whiteSpace=wrap;html=1;fontSize=16;dashed=1;dashPattern=1 2;" parent="1" vertex="1"><mxGeometry x="200" y="100" width="560" height="260" as="geometry"/></mxCell><mxCell id="IMkn7QF7C7UZfDmJMlh3-2" value="rApp Manager" style="rounded=1;whiteSpace=wrap;html=1;fontSize=16;fillColor=#b0e3e6;strokeColor=#0e8088;" parent="1" vertex="1"><mxGeometry x="60" y="-97" width="122" height="63" as="geometry"/></mxCell><mxCell id="KdB-_tFk0e3cPOdDlfYL-5" style="edgeStyle=none;curved=1;rounded=0;orthogonalLoop=1;jettySize=auto;html=1;entryX=0.5;entryY=0;entryDx=0;entryDy=0;fontSize=12;startSize=8;endSize=8;" parent="1" source="IMkn7QF7C7UZfDmJMlh3-6" target="IMkn7QF7C7UZfDmJMlh3-2" edge="1"><mxGeometry relative="1" as="geometry"/></mxCell><mxCell id="IMkn7QF7C7UZfDmJMlh3-6" value="API User" style="shape=umlActor;verticalLabelPosition=top;verticalAlign=bottom;html=1;outlineConnect=0;fontSize=16;labelPosition=center;align=center;" parent="1" vertex="1"><mxGeometry x="106" y="-284.5" width="30" height="60" as="geometry"/></mxCell><mxCell id="HdeRTKC2PSPPZ0eF_beT-1" value="Rapp Catalogue" style="rounded=1;whiteSpace=wrap;html=1;fontSize=16;fillColor=#e1d5e7;strokeColor=#9673a6;" parent="1" vertex="1"><mxGeometry x="1060" y="-130" width="120" height="60" as="geometry"/></mxCell><mxCell id="cXwkYd20uXq4Kvx39tCG-6" value="" style="group" parent="1" vertex="1" connectable="0"><mxGeometry x="-380" y="100" width="535" height="264" as="geometry"/></mxCell><mxCell id="IMkn7QF7C7UZfDmJMlh3-10" value="" style="rounded=0;whiteSpace=wrap;html=1;fontSize=16;shadow=0;glass=0;dashed=1;dashPattern=1 2;" parent="cXwkYd20uXq4Kvx39tCG-6" vertex="1"><mxGeometry width="535" height="264" as="geometry"/></mxCell><mxCell id="IMkn7QF7C7UZfDmJMlh3-1" value="ACM Runtime" style="rounded=1;whiteSpace=wrap;html=1;fontSize=16;fillColor=#fff2cc;strokeColor=#d6b656;" parent="cXwkYd20uXq4Kvx39tCG-6" vertex="1"><mxGeometry x="201" y="24" width="120" height="60" as="geometry"/></mxCell><mxCell id="IMkn7QF7C7UZfDmJMlh3-3" value="Kubernetes Participant" style="rounded=1;whiteSpace=wrap;html=1;fontSize=16;fillColor=#dae8fc;strokeColor=#6c8ebf;" parent="cXwkYd20uXq4Kvx39tCG-6" vertex="1"><mxGeometry x="45" y="168" width="120" height="60" as="geometry"/></mxCell><mxCell id="IMkn7QF7C7UZfDmJMlh3-4" value="A1PMS Participant" style="rounded=1;whiteSpace=wrap;html=1;fontSize=16;fillColor=#dae8fc;strokeColor=#6c8ebf;" parent="cXwkYd20uXq4Kvx39tCG-6" vertex="1"><mxGeometry x="201" y="168" width="120" height="60" as="geometry"/></mxCell><mxCell id="IMkn7QF7C7UZfDmJMlh3-5" value="Kserve Participant" style="rounded=1;whiteSpace=wrap;html=1;fontSize=16;fillColor=#dae8fc;strokeColor=#6c8ebf;" parent="cXwkYd20uXq4Kvx39tCG-6" vertex="1"><mxGeometry x="398" y="168" width="120" height="60" as="geometry"/></mxCell><mxCell id="IMkn7QF7C7UZfDmJMlh3-7" value="" style="endArrow=classic;startArrow=classic;html=1;rounded=0;fontSize=12;startSize=8;endSize=8;curved=1;" parent="cXwkYd20uXq4Kvx39tCG-6" edge="1"><mxGeometry width="50" height="50" relative="1" as="geometry"><mxPoint x="209" y="84" as="sourcePoint"/><mxPoint x="105" y="165" as="targetPoint"/></mxGeometry></mxCell><mxCell id="IMkn7QF7C7UZfDmJMlh3-8" value="" style="endArrow=classic;startArrow=classic;html=1;rounded=0;fontSize=12;startSize=8;endSize=8;curved=1;entryX=0.5;entryY=0;entryDx=0;entryDy=0;" parent="cXwkYd20uXq4Kvx39tCG-6" target="IMkn7QF7C7UZfDmJMlh3-4" edge="1"><mxGeometry width="50" height="50" relative="1" as="geometry"><mxPoint x="260" y="84" as="sourcePoint"/><mxPoint x="156" y="165" as="targetPoint"/></mxGeometry></mxCell><mxCell id="IMkn7QF7C7UZfDmJMlh3-9" value="" style="endArrow=classic;startArrow=classic;html=1;rounded=0;fontSize=12;startSize=8;endSize=8;curved=1;entryX=0.944;entryY=0.939;entryDx=0;entryDy=0;entryPerimeter=0;exitX=0.5;exitY=0;exitDx=0;exitDy=0;" parent="cXwkYd20uXq4Kvx39tCG-6" source="IMkn7QF7C7UZfDmJMlh3-5" target="IMkn7QF7C7UZfDmJMlh3-1" edge="1"><mxGeometry width="50" height="50" relative="1" as="geometry"><mxPoint x="628" y="46" as="sourcePoint"/><mxPoint x="524" y="127" as="targetPoint"/></mxGeometry></mxCell><mxCell id="IMkn7QF7C7UZfDmJMlh3-11" value="ACM" style="text;html=1;strokeColor=none;fillColor=none;align=center;verticalAlign=middle;whiteSpace=wrap;rounded=0;fontSize=16;" parent="cXwkYd20uXq4Kvx39tCG-6" vertex="1"><mxGeometry x="475" width="60" height="30" as="geometry"/></mxCell><mxCell id="IMkn7QF7C7UZfDmJMlh3-13" value="" style="endArrow=none;dashed=1;html=1;rounded=0;fontSize=12;startSize=8;endSize=8;curved=1;dashPattern=1 2;" parent="cXwkYd20uXq4Kvx39tCG-6" edge="1"><mxGeometry width="50" height="50" relative="1" as="geometry"><mxPoint x="334" y="201" as="sourcePoint"/><mxPoint x="386" y="201" as="targetPoint"/></mxGeometry></mxCell><mxCell id="IMkn7QF7C7UZfDmJMlh3-17" style="edgeStyle=none;curved=1;rounded=0;orthogonalLoop=1;jettySize=auto;html=1;fontSize=12;startSize=8;endSize=8;" parent="1" source="IMkn7QF7C7UZfDmJMlh3-2" target="IMkn7QF7C7UZfDmJMlh3-1" edge="1"><mxGeometry relative="1" as="geometry"/></mxCell><mxCell id="cXwkYd20uXq4Kvx39tCG-10" value="NONRTRIC" style="text;html=1;strokeColor=none;fillColor=none;align=center;verticalAlign=middle;whiteSpace=wrap;rounded=0;fontSize=16;" parent="1" vertex="1"><mxGeometry x="660" y="110" width="60" height="12.1875" as="geometry"/></mxCell><mxCell id="cXwkYd20uXq4Kvx39tCG-20" value="" style="group;fillColor=#fff2cc;strokeColor=#d6b656;" parent="1" vertex="1" connectable="0"><mxGeometry x="500" y="150" width="240" height="190" as="geometry"/></mxCell><mxCell id="cXwkYd20uXq4Kvx39tCG-2" value="" style="rounded=0;whiteSpace=wrap;html=1;fontSize=16;shadow=0;glass=0;fillColor=#b1ddf0;strokeColor=#10739e;" parent="cXwkYd20uXq4Kvx39tCG-20" vertex="1"><mxGeometry x="-5" width="245" height="190" as="geometry"/></mxCell><mxCell id="cXwkYd20uXq4Kvx39tCG-4" value="ICS" style="rounded=1;whiteSpace=wrap;html=1;fontSize=16;fillColor=#fff2cc;strokeColor=#d6b656;" parent="cXwkYd20uXq4Kvx39tCG-20" vertex="1"><mxGeometry x="41.03" y="51.7" width="152.93" height="56.61" as="geometry"/></mxCell><mxCell id="cXwkYd20uXq4Kvx39tCG-5" style="edgeStyle=none;curved=1;rounded=0;orthogonalLoop=1;jettySize=auto;html=1;exitX=0.5;exitY=1;exitDx=0;exitDy=0;fontSize=12;startSize=8;endSize=8;" parent="cXwkYd20uXq4Kvx39tCG-20" source="cXwkYd20uXq4Kvx39tCG-2" target="cXwkYd20uXq4Kvx39tCG-2" edge="1"><mxGeometry relative="1" as="geometry"/></mxCell><mxCell id="IMkn7QF7C7UZfDmJMlh3-26" value="DME" style="text;html=1;strokeColor=none;fillColor=none;align=center;verticalAlign=middle;whiteSpace=wrap;rounded=0;fontSize=16;" parent="cXwkYd20uXq4Kvx39tCG-20" vertex="1"><mxGeometry x="189.9961896243292" y="9.999913043478273" width="42.933810375670845" height="10.17391304347826" as="geometry"/></mxCell><mxCell id="cXwkYd20uXq4Kvx39tCG-8" style="edgeStyle=none;curved=1;rounded=0;orthogonalLoop=1;jettySize=auto;html=1;entryX=0.5;entryY=0;entryDx=0;entryDy=0;fontSize=12;startSize=8;endSize=8;" parent="1" source="IMkn7QF7C7UZfDmJMlh3-2" target="cXwkYd20uXq4Kvx39tCG-4" edge="1"><mxGeometry relative="1" as="geometry"/></mxCell><mxCell id="KdB-_tFk0e3cPOdDlfYL-3" value="" style="rounded=0;whiteSpace=wrap;html=1;fontSize=16;shadow=0;glass=0;fillColor=#fad9d5;strokeColor=#ae4132;container=0;" parent="1" vertex="1"><mxGeometry x="220" y="150" width="240" height="190" as="geometry"/></mxCell><mxCell id="IMkn7QF7C7UZfDmJMlh3-22" value="CAPIF" style="rounded=1;whiteSpace=wrap;html=1;fontSize=16;fillColor=#fff2cc;strokeColor=#d6b656;" parent="1" vertex="1"><mxGeometry x="270" y="175.9090909090909" width="170" height="60.45454545454545" as="geometry"/></mxCell><mxCell id="IMkn7QF7C7UZfDmJMlh3-25" value="SME" style="text;html=1;strokeColor=none;fillColor=none;align=center;verticalAlign=middle;whiteSpace=wrap;rounded=0;fontSize=16;" parent="1" vertex="1"><mxGeometry x="402.4642857142857" y="158.0229890422078" width="47.14285714285714" height="9.773741883116884" as="geometry"/></mxCell><mxCell id="cXwkYd20uXq4Kvx39tCG-22" value="Keycloak" style="rounded=1;whiteSpace=wrap;html=1;fontSize=16;fillColor=#b0e3e6;strokeColor=#0e8088;" parent="1" vertex="1"><mxGeometry x="270" y="253.63636363636363" width="170" height="60.45454545454545" as="geometry"/></mxCell><mxCell id="cXwkYd20uXq4Kvx39tCG-7" value="" style="edgeStyle=none;curved=1;rounded=0;orthogonalLoop=1;jettySize=auto;html=1;entryX=0.5;entryY=0;entryDx=0;entryDy=0;fontSize=12;startSize=8;endSize=8;" parent="1" source="IMkn7QF7C7UZfDmJMlh3-2" target="IMkn7QF7C7UZfDmJMlh3-22" edge="1"><mxGeometry relative="1" as="geometry"/></mxCell></root></mxGraphModel></diagram><diagram id="5WbYrmaVoOUk7OSHm8GO" name="rApp-States">&#xa;    <mxGraphModel dx="1034" dy="486" grid="0" gridSize="10" guides="1" tooltips="1" connect="1" arrows="1" fold="1" page="0" pageScale="1" pageWidth="827" pageHeight="1169" math="0" shadow="0">&#xa;      <root>&#xa;        <mxCell id="0"/>&#xa;        <mxCell id="1" parent="0"/>&#xa;        <mxCell id="OlEAaxTOH4qE6BNT9p8g-16" style="edgeStyle=none;curved=1;rounded=0;orthogonalLoop=1;jettySize=auto;html=1;fontSize=12;startSize=8;endSize=8;" parent="1" source="kaBHNdDOut0HFUkxyrMo-2" target="OlEAaxTOH4qE6BNT9p8g-2" edge="1">&#xa;          <mxGeometry relative="1" as="geometry"/>&#xa;        </mxCell>&#xa;        <mxCell id="kaBHNdDOut0HFUkxyrMo-2" value="PRIMING" style="rounded=1;whiteSpace=wrap;html=1;fontSize=16;fillColor=#fff2cc;strokeColor=#d6b656;" parent="1" vertex="1">&#xa;          <mxGeometry x="734" y="763" width="120" height="60" as="geometry"/>&#xa;        </mxCell>&#xa;        <mxCell id="SM-95HUsG2i_VOHMoe33-1" style="edgeStyle=none;curved=1;rounded=0;orthogonalLoop=1;jettySize=auto;html=1;entryX=1;entryY=0.5;entryDx=0;entryDy=0;fontSize=12;startSize=8;endSize=8;" parent="1" source="kaBHNdDOut0HFUkxyrMo-3" target="OlEAaxTOH4qE6BNT9p8g-1" edge="1">&#xa;          <mxGeometry relative="1" as="geometry">&#xa;            <Array as="points">&#xa;              <mxPoint x="1153" y="850"/>&#xa;            </Array>&#xa;          </mxGeometry>&#xa;        </mxCell>&#xa;        <mxCell id="kaBHNdDOut0HFUkxyrMo-3" value="DEPRIMING" style="rounded=1;whiteSpace=wrap;html=1;fontSize=16;fillColor=#fff2cc;strokeColor=#d6b656;" parent="1" vertex="1">&#xa;          <mxGeometry x="734" y="985" width="120" height="60" as="geometry"/>&#xa;        </mxCell>&#xa;        <mxCell id="OlEAaxTOH4qE6BNT9p8g-15" style="edgeStyle=none;curved=1;rounded=0;orthogonalLoop=1;jettySize=auto;html=1;fontSize=12;startSize=8;endSize=8;" parent="1" source="OlEAaxTOH4qE6BNT9p8g-1" target="kaBHNdDOut0HFUkxyrMo-2" edge="1">&#xa;          <mxGeometry relative="1" as="geometry"/>&#xa;        </mxCell>&#xa;        <mxCell id="OlEAaxTOH4qE6BNT9p8g-1" value="COMMISSIONED" style="rounded=1;whiteSpace=wrap;html=1;fontSize=16;fillColor=#60a917;strokeColor=#2D7600;fontColor=#ffffff;" parent="1" vertex="1">&#xa;          <mxGeometry x="726" y="659" width="136" height="60" as="geometry"/>&#xa;        </mxCell>&#xa;        <mxCell id="OlEAaxTOH4qE6BNT9p8g-17" style="edgeStyle=none;curved=1;rounded=0;orthogonalLoop=1;jettySize=auto;html=1;entryX=0.5;entryY=0;entryDx=0;entryDy=0;fontSize=12;startSize=8;endSize=8;" parent="1" source="OlEAaxTOH4qE6BNT9p8g-2" target="kaBHNdDOut0HFUkxyrMo-3" edge="1">&#xa;          <mxGeometry relative="1" as="geometry"/>&#xa;        </mxCell>&#xa;        <mxCell id="OlEAaxTOH4qE6BNT9p8g-2" value="PRIMED" style="rounded=1;whiteSpace=wrap;html=1;fontSize=16;fillColor=#60a917;strokeColor=#2D7600;fontColor=#ffffff;" parent="1" vertex="1">&#xa;          <mxGeometry x="734" y="874" width="120" height="60" as="geometry"/>&#xa;        </mxCell>&#xa;      </root>&#xa;    </mxGraphModel>&#xa;  </diagram><diagram name="rApp Instance States" id="4tHQkv6kBpBhb85iWkPI">&#xa;    <mxGraphModel dx="1034" dy="486" grid="0" gridSize="10" guides="1" tooltips="1" connect="1" arrows="1" fold="1" page="0" pageScale="1" pageWidth="827" pageHeight="1169" math="0" shadow="0">&#xa;      <root>&#xa;        <mxCell id="TQWpiqcAljcXlIxfPDRo-0"/>&#xa;        <mxCell id="TQWpiqcAljcXlIxfPDRo-1" parent="TQWpiqcAljcXlIxfPDRo-0"/>&#xa;        <mxCell id="TQWpiqcAljcXlIxfPDRo-4" style="edgeStyle=none;curved=1;rounded=0;orthogonalLoop=1;jettySize=auto;html=1;fontSize=12;startSize=8;endSize=8;" parent="TQWpiqcAljcXlIxfPDRo-1" source="TQWpiqcAljcXlIxfPDRo-5" target="TQWpiqcAljcXlIxfPDRo-12" edge="1">&#xa;          <mxGeometry relative="1" as="geometry"/>&#xa;        </mxCell>&#xa;        <mxCell id="TQWpiqcAljcXlIxfPDRo-5" value="DEPLOYED" style="rounded=1;whiteSpace=wrap;html=1;fontSize=16;fillColor=#60a917;strokeColor=#2D7600;fontColor=#ffffff;" parent="TQWpiqcAljcXlIxfPDRo-1" vertex="1">&#xa;          <mxGeometry x="734" y="763" width="120" height="60" as="geometry"/>&#xa;        </mxCell>&#xa;        <mxCell id="htJC7knH3mB6ENcDUvvf-0" style="edgeStyle=none;curved=1;rounded=0;orthogonalLoop=1;jettySize=auto;html=1;entryX=0.997;entryY=0.62;entryDx=0;entryDy=0;entryPerimeter=0;fontSize=12;startSize=8;endSize=8;" parent="TQWpiqcAljcXlIxfPDRo-1" source="TQWpiqcAljcXlIxfPDRo-6" target="TQWpiqcAljcXlIxfPDRo-9" edge="1">&#xa;          <mxGeometry relative="1" as="geometry">&#xa;            <Array as="points">&#xa;              <mxPoint x="1100" y="810"/>&#xa;            </Array>&#xa;          </mxGeometry>&#xa;        </mxCell>&#xa;        <mxCell id="TQWpiqcAljcXlIxfPDRo-6" value="UNDEPLOYED" style="rounded=1;whiteSpace=wrap;html=1;fontSize=16;fillColor=#60a917;strokeColor=#2D7600;fontColor=#ffffff;" parent="TQWpiqcAljcXlIxfPDRo-1" vertex="1">&#xa;          <mxGeometry x="734" y="985" width="120" height="60" as="geometry"/>&#xa;        </mxCell>&#xa;        <mxCell id="TQWpiqcAljcXlIxfPDRo-7" style="edgeStyle=none;curved=1;rounded=0;orthogonalLoop=1;jettySize=auto;html=1;fontSize=12;startSize=8;endSize=8;" parent="TQWpiqcAljcXlIxfPDRo-1" source="TQWpiqcAljcXlIxfPDRo-9" target="TQWpiqcAljcXlIxfPDRo-5" edge="1">&#xa;          <mxGeometry relative="1" as="geometry"/>&#xa;        </mxCell>&#xa;        <mxCell id="TQWpiqcAljcXlIxfPDRo-9" value="DEPLOYING" style="rounded=1;whiteSpace=wrap;html=1;fontSize=16;fillColor=#fff2cc;strokeColor=#d6b656;" parent="TQWpiqcAljcXlIxfPDRo-1" vertex="1">&#xa;          <mxGeometry x="734" y="662" width="120" height="60" as="geometry"/>&#xa;        </mxCell>&#xa;        <mxCell id="TQWpiqcAljcXlIxfPDRo-10" style="edgeStyle=none;curved=1;rounded=0;orthogonalLoop=1;jettySize=auto;html=1;entryX=0.5;entryY=0;entryDx=0;entryDy=0;fontSize=12;startSize=8;endSize=8;" parent="TQWpiqcAljcXlIxfPDRo-1" source="TQWpiqcAljcXlIxfPDRo-12" target="TQWpiqcAljcXlIxfPDRo-6" edge="1">&#xa;          <mxGeometry relative="1" as="geometry"/>&#xa;        </mxCell>&#xa;        <mxCell id="TQWpiqcAljcXlIxfPDRo-12" value="UNDEPLOYING" style="rounded=1;whiteSpace=wrap;html=1;fontSize=16;fillColor=#fff2cc;strokeColor=#d6b656;" parent="TQWpiqcAljcXlIxfPDRo-1" vertex="1">&#xa;          <mxGeometry x="734" y="874" width="120" height="60" as="geometry"/>&#xa;        </mxCell>&#xa;      </root>&#xa;    </mxGraphModel>&#xa;  </diagram><diagram name="rApp Instance Events" id="e8AQIz6e7eoNnJf5ZOEh">&#xa;    <mxGraphModel dx="1287" dy="642" grid="0" gridSize="10" guides="1" tooltips="1" connect="1" arrows="1" fold="1" page="0" pageScale="1" pageWidth="827" pageHeight="1169" math="0" shadow="0">&#xa;      <root>&#xa;        <mxCell id="EyTT8lpdAKgMZ4VjWMC6-0"/>&#xa;        <mxCell id="EyTT8lpdAKgMZ4VjWMC6-1" parent="EyTT8lpdAKgMZ4VjWMC6-0"/>&#xa;        <mxCell id="EyTT8lpdAKgMZ4VjWMC6-2" style="edgeStyle=none;curved=1;rounded=0;orthogonalLoop=1;jettySize=auto;html=1;fontSize=12;startSize=8;endSize=8;entryX=0.5;entryY=0;entryDx=0;entryDy=0;" parent="EyTT8lpdAKgMZ4VjWMC6-1" source="EyTT8lpdAKgMZ4VjWMC6-3" target="EyTT8lpdAKgMZ4VjWMC6-8" edge="1">&#xa;          <mxGeometry relative="1" as="geometry">&#xa;            <mxPoint x="796" y="643" as="targetPoint"/>&#xa;          </mxGeometry>&#xa;        </mxCell>&#xa;        <mxCell id="EyTT8lpdAKgMZ4VjWMC6-3" value="UNDEPLOYED" style="rounded=1;whiteSpace=wrap;html=1;fontSize=16;fillColor=#60a917;strokeColor=#2D7600;fontColor=#ffffff;" parent="EyTT8lpdAKgMZ4VjWMC6-1" vertex="1">&#xa;          <mxGeometry x="733" y="530" width="120" height="60" as="geometry"/>&#xa;        </mxCell>&#xa;        <mxCell id="EyTT8lpdAKgMZ4VjWMC6-4" style="edgeStyle=none;curved=1;rounded=0;orthogonalLoop=1;jettySize=auto;html=1;fontSize=12;startSize=8;endSize=8;" parent="EyTT8lpdAKgMZ4VjWMC6-1" source="EyTT8lpdAKgMZ4VjWMC6-5" target="EyTT8lpdAKgMZ4VjWMC6-10" edge="1">&#xa;          <mxGeometry relative="1" as="geometry"/>&#xa;        </mxCell>&#xa;        <mxCell id="EyTT8lpdAKgMZ4VjWMC6-5" value="DEPLOYED" style="rounded=1;whiteSpace=wrap;html=1;fontSize=16;fillColor=#60a917;fontColor=#ffffff;strokeColor=#2D7600;" parent="EyTT8lpdAKgMZ4VjWMC6-1" vertex="1">&#xa;          <mxGeometry x="734" y="931" width="120" height="60" as="geometry"/>&#xa;        </mxCell>&#xa;        <mxCell id="h__vrVu5-qu6cgSce-rx-6" style="edgeStyle=none;curved=1;rounded=0;orthogonalLoop=1;jettySize=auto;html=1;entryX=-0.087;entryY=0.478;entryDx=0;entryDy=0;entryPerimeter=0;fontSize=12;startSize=8;endSize=8;" parent="EyTT8lpdAKgMZ4VjWMC6-1" source="EyTT8lpdAKgMZ4VjWMC6-8" target="EyTT8lpdAKgMZ4VjWMC6-3" edge="1">&#xa;          <mxGeometry relative="1" as="geometry">&#xa;            <Array as="points">&#xa;              <mxPoint x="496" y="649"/>&#xa;            </Array>&#xa;          </mxGeometry>&#xa;        </mxCell>&#xa;        <mxCell id="SABqlHIYieWgqcJjw3hA-13" style="edgeStyle=none;curved=1;rounded=0;orthogonalLoop=1;jettySize=auto;html=1;fontSize=12;startSize=8;endSize=8;" edge="1" parent="EyTT8lpdAKgMZ4VjWMC6-1" source="EyTT8lpdAKgMZ4VjWMC6-8">&#xa;          <mxGeometry relative="1" as="geometry">&#xa;            <mxPoint x="680" y="863" as="targetPoint"/>&#xa;          </mxGeometry>&#xa;        </mxCell>&#xa;        <mxCell id="SABqlHIYieWgqcJjw3hA-14" style="edgeStyle=none;curved=1;rounded=0;orthogonalLoop=1;jettySize=auto;html=1;fontSize=12;startSize=8;endSize=8;" edge="1" parent="EyTT8lpdAKgMZ4VjWMC6-1" source="EyTT8lpdAKgMZ4VjWMC6-8">&#xa;          <mxGeometry relative="1" as="geometry">&#xa;            <mxPoint x="906" y="864" as="targetPoint"/>&#xa;          </mxGeometry>&#xa;        </mxCell>&#xa;        <mxCell id="SABqlHIYieWgqcJjw3hA-15" style="edgeStyle=none;curved=1;rounded=0;orthogonalLoop=1;jettySize=auto;html=1;fontSize=12;startSize=8;endSize=8;" edge="1" parent="EyTT8lpdAKgMZ4VjWMC6-1" source="EyTT8lpdAKgMZ4VjWMC6-8">&#xa;          <mxGeometry relative="1" as="geometry">&#xa;            <mxPoint x="794" y="866" as="targetPoint"/>&#xa;          </mxGeometry>&#xa;        </mxCell>&#xa;        <mxCell id="EyTT8lpdAKgMZ4VjWMC6-8" value="DEPLOYING" style="rounded=1;whiteSpace=wrap;html=1;fontSize=16;fillColor=#fff2cc;strokeColor=#d6b656;" parent="EyTT8lpdAKgMZ4VjWMC6-1" vertex="1">&#xa;          <mxGeometry x="734" y="662" width="120" height="60" as="geometry"/>&#xa;        </mxCell>&#xa;        <mxCell id="h__vrVu5-qu6cgSce-rx-4" style="edgeStyle=none;curved=1;rounded=0;orthogonalLoop=1;jettySize=auto;html=1;entryX=0;entryY=0.5;entryDx=0;entryDy=0;fontSize=12;startSize=8;endSize=8;" parent="EyTT8lpdAKgMZ4VjWMC6-1" source="EyTT8lpdAKgMZ4VjWMC6-10" target="EyTT8lpdAKgMZ4VjWMC6-5" edge="1">&#xa;          <mxGeometry relative="1" as="geometry">&#xa;            <Array as="points">&#xa;              <mxPoint x="531" y="1041"/>&#xa;            </Array>&#xa;          </mxGeometry>&#xa;        </mxCell>&#xa;        <mxCell id="SABqlHIYieWgqcJjw3hA-8" style="edgeStyle=none;curved=1;rounded=0;orthogonalLoop=1;jettySize=auto;html=1;fontSize=12;startSize=8;endSize=8;" edge="1" parent="EyTT8lpdAKgMZ4VjWMC6-1" source="EyTT8lpdAKgMZ4VjWMC6-10">&#xa;          <mxGeometry relative="1" as="geometry">&#xa;            <mxPoint x="675" y="1280" as="targetPoint"/>&#xa;          </mxGeometry>&#xa;        </mxCell>&#xa;        <mxCell id="SABqlHIYieWgqcJjw3hA-9" style="edgeStyle=none;curved=1;rounded=0;orthogonalLoop=1;jettySize=auto;html=1;fontSize=12;startSize=8;endSize=8;" edge="1" parent="EyTT8lpdAKgMZ4VjWMC6-1" source="EyTT8lpdAKgMZ4VjWMC6-10">&#xa;          <mxGeometry relative="1" as="geometry">&#xa;            <mxPoint x="908" y="1282" as="targetPoint"/>&#xa;          </mxGeometry>&#xa;        </mxCell>&#xa;        <mxCell id="SABqlHIYieWgqcJjw3hA-10" style="edgeStyle=none;curved=1;rounded=0;orthogonalLoop=1;jettySize=auto;html=1;fontSize=12;startSize=8;endSize=8;" edge="1" parent="EyTT8lpdAKgMZ4VjWMC6-1" source="EyTT8lpdAKgMZ4VjWMC6-10">&#xa;          <mxGeometry relative="1" as="geometry">&#xa;            <mxPoint x="794" y="1282" as="targetPoint"/>&#xa;          </mxGeometry>&#xa;        </mxCell>&#xa;        <mxCell id="EyTT8lpdAKgMZ4VjWMC6-10" value="UNDEPLOYING" style="rounded=1;whiteSpace=wrap;html=1;fontSize=16;fillColor=#fff2cc;strokeColor=#d6b656;" parent="EyTT8lpdAKgMZ4VjWMC6-1" vertex="1">&#xa;          <mxGeometry x="734" y="1067" width="120" height="60" as="geometry"/>&#xa;        </mxCell>&#xa;        <mxCell id="EyTT8lpdAKgMZ4VjWMC6-12" value="&lt;div style=&quot;background-color: rgb(255, 255, 255); font-size: 17px;&quot;&gt;&lt;span style=&quot;font-size: 17px;&quot;&gt;DEPLOYING&lt;/span&gt;&lt;/div&gt;" style="text;whiteSpace=wrap;html=1;fontSize=17;fontStyle=1;fontFamily=Times New Roman;align=center;horizontal=1;fontColor=#CC00CC;" parent="EyTT8lpdAKgMZ4VjWMC6-1" vertex="1">&#xa;          <mxGeometry x="740" y="600" width="99" height="38" as="geometry"/>&#xa;        </mxCell>&#xa;        <mxCell id="EyTT8lpdAKgMZ4VjWMC6-16" value="&lt;div style=&quot;background-color: rgb(255, 255, 255); font-size: 17px;&quot;&gt;&lt;span style=&quot;font-size: 17px;&quot;&gt;SMEDEPLOYED&lt;/span&gt;&lt;/div&gt;" style="text;whiteSpace=wrap;html=1;fontSize=17;fontStyle=1;fontFamily=Times New Roman;align=center;horizontal=1;fontColor=#CC00CC;" parent="EyTT8lpdAKgMZ4VjWMC6-1" vertex="1">&#xa;          <mxGeometry x="751" y="805" width="99" height="38" as="geometry"/>&#xa;        </mxCell>&#xa;        <mxCell id="EyTT8lpdAKgMZ4VjWMC6-17" value="&lt;div style=&quot;background-color: rgb(255, 255, 255); font-size: 17px;&quot;&gt;&lt;span style=&quot;font-size: 17px;&quot;&gt;ACMDEPLOYED&lt;/span&gt;&lt;/div&gt;" style="text;whiteSpace=wrap;html=1;fontSize=17;fontStyle=1;fontFamily=Times New Roman;align=center;horizontal=1;fontColor=#CC00CC;" parent="EyTT8lpdAKgMZ4VjWMC6-1" vertex="1">&#xa;          <mxGeometry x="667" y="767" width="99" height="38" as="geometry"/>&#xa;        </mxCell>&#xa;        <mxCell id="EyTT8lpdAKgMZ4VjWMC6-19" value="&lt;div style=&quot;background-color: rgb(255, 255, 255); font-size: 17px;&quot;&gt;&lt;span style=&quot;font-size: 17px;&quot;&gt;ACMUNDEPLOYFAILED&lt;/span&gt;&lt;/div&gt;" style="text;whiteSpace=wrap;html=1;fontSize=17;fontStyle=1;fontFamily=Times New Roman;align=center;horizontal=1;fontColor=#CC00CC;" parent="EyTT8lpdAKgMZ4VjWMC6-1" vertex="1">&#xa;          <mxGeometry x="458" y="982" width="99" height="38" as="geometry"/>&#xa;        </mxCell>&#xa;        <mxCell id="EyTT8lpdAKgMZ4VjWMC6-20" value="&lt;div style=&quot;background-color: rgb(255, 255, 255); font-size: 17px;&quot;&gt;&lt;span style=&quot;font-size: 17px;&quot;&gt;ACMDEPLOYFAILED&lt;/span&gt;&lt;/div&gt;" style="text;whiteSpace=wrap;html=1;fontSize=17;fontStyle=1;fontFamily=Times New Roman;align=center;horizontal=1;fontColor=#CC00CC;" parent="EyTT8lpdAKgMZ4VjWMC6-1" vertex="1">&#xa;          <mxGeometry x="458" y="581" width="99" height="38" as="geometry"/>&#xa;        </mxCell>&#xa;        <mxCell id="EyTT8lpdAKgMZ4VjWMC6-21" value="&lt;div style=&quot;background-color: rgb(255, 255, 255); font-size: 17px;&quot;&gt;&lt;span style=&quot;font-size: 17px;&quot;&gt;UNDEPLOYING&lt;/span&gt;&lt;/div&gt;" style="text;whiteSpace=wrap;html=1;fontSize=17;fontStyle=1;fontFamily=Times New Roman;align=center;horizontal=1;fontColor=#CC00CC;" parent="EyTT8lpdAKgMZ4VjWMC6-1" vertex="1">&#xa;          <mxGeometry x="751" y="1007" width="99" height="38" as="geometry"/>&#xa;        </mxCell>&#xa;        <mxCell id="EyTT8lpdAKgMZ4VjWMC6-25" value="&lt;div style=&quot;background-color: rgb(255, 255, 255); font-size: 17px;&quot;&gt;&lt;span style=&quot;font-size: 17px;&quot;&gt;SMEUNDEPLOYED&lt;/span&gt;&lt;/div&gt;" style="text;whiteSpace=wrap;html=1;fontSize=17;fontStyle=1;fontFamily=Times New Roman;align=center;horizontal=1;fontColor=#CC00CC;" parent="EyTT8lpdAKgMZ4VjWMC6-1" vertex="1">&#xa;          <mxGeometry x="748" y="1223" width="99" height="38" as="geometry"/>&#xa;        </mxCell>&#xa;        <mxCell id="EyTT8lpdAKgMZ4VjWMC6-26" value="&lt;div style=&quot;background-color: rgb(255, 255, 255); font-size: 17px;&quot;&gt;&lt;span style=&quot;font-size: 17px;&quot;&gt;ACMUNDEPLOYED&lt;/span&gt;&lt;/div&gt;" style="text;whiteSpace=wrap;html=1;fontSize=17;fontStyle=1;fontFamily=Times New Roman;align=center;horizontal=1;fontColor=#CC00CC;" parent="EyTT8lpdAKgMZ4VjWMC6-1" vertex="1">&#xa;          <mxGeometry x="656" y="1179" width="99" height="38" as="geometry"/>&#xa;        </mxCell>&#xa;        <mxCell id="EyTT8lpdAKgMZ4VjWMC6-28" value="&lt;span style=&quot;color: rgb(204, 0, 204); font-family: &amp;quot;Times New Roman&amp;quot;; font-size: 17px; font-style: normal; font-variant-ligatures: normal; font-variant-caps: normal; font-weight: 700; letter-spacing: normal; orphans: 2; text-align: center; text-indent: 0px; text-transform: none; widows: 2; word-spacing: 0px; -webkit-text-stroke-width: 0px; background-color: rgb(255, 255, 255); text-decoration-thickness: initial; text-decoration-style: initial; text-decoration-color: initial; float: none; display: inline !important;&quot;&gt;SMEDEPLOYFAILED&lt;/span&gt;" style="text;whiteSpace=wrap;html=1;fontSize=16;" parent="EyTT8lpdAKgMZ4VjWMC6-1" vertex="1">&#xa;          <mxGeometry x="418.99855398995555" y="612.0028397042412" width="199" height="42" as="geometry"/>&#xa;        </mxCell>&#xa;        <mxCell id="EyTT8lpdAKgMZ4VjWMC6-29" value="&lt;span style=&quot;color: rgb(204, 0, 204); font-family: &amp;quot;Times New Roman&amp;quot;; font-size: 17px; font-style: normal; font-variant-ligatures: normal; font-variant-caps: normal; font-weight: 700; letter-spacing: normal; orphans: 2; text-align: center; text-indent: 0px; text-transform: none; widows: 2; word-spacing: 0px; -webkit-text-stroke-width: 0px; background-color: rgb(255, 255, 255); text-decoration-thickness: initial; text-decoration-style: initial; text-decoration-color: initial; float: none; display: inline !important;&quot;&gt;SMEUNDEPLOYFAILED&lt;/span&gt;" style="text;whiteSpace=wrap;html=1;fontSize=16;" parent="EyTT8lpdAKgMZ4VjWMC6-1" vertex="1">&#xa;          <mxGeometry x="405.0042682756698" y="1015.9999825613841" width="223" height="42" as="geometry"/>&#xa;        </mxCell>&#xa;        <mxCell id="h__vrVu5-qu6cgSce-rx-1" value="" style="shape=link;html=1;rounded=0;fontSize=12;startSize=8;endSize=8;curved=1;" parent="EyTT8lpdAKgMZ4VjWMC6-1" edge="1">&#xa;          <mxGeometry width="100" relative="1" as="geometry">&#xa;            <mxPoint x="923.44" y="1286" as="sourcePoint"/>&#xa;            <mxPoint x="664.31" y="1284" as="targetPoint"/>&#xa;            <Array as="points">&#xa;              <mxPoint x="923.69" y="1286"/>&#xa;              <mxPoint x="799" y="1284"/>&#xa;            </Array>&#xa;          </mxGeometry>&#xa;        </mxCell>&#xa;        <mxCell id="SABqlHIYieWgqcJjw3hA-1" value="&lt;span style=&quot;color: rgb(204, 0, 204); font-family: &amp;quot;Times New Roman&amp;quot;; font-size: 17px; font-style: normal; font-variant-ligatures: normal; font-variant-caps: normal; font-weight: 700; letter-spacing: normal; orphans: 2; text-align: center; text-indent: 0px; text-transform: none; widows: 2; word-spacing: 0px; -webkit-text-stroke-width: 0px; background-color: rgb(255, 255, 255); text-decoration-thickness: initial; text-decoration-style: initial; text-decoration-color: initial; float: none; display: inline !important;&quot;&gt;DMEDEPLOYFAILED&lt;/span&gt;" style="text;whiteSpace=wrap;html=1;fontSize=16;" vertex="1" parent="EyTT8lpdAKgMZ4VjWMC6-1">&#xa;          <mxGeometry x="418.99855398995555" y="647.0028397042412" width="199" height="42" as="geometry"/>&#xa;        </mxCell>&#xa;        <mxCell id="SABqlHIYieWgqcJjw3hA-2" value="&lt;div style=&quot;background-color: rgb(255, 255, 255); font-size: 17px;&quot;&gt;&lt;span style=&quot;font-size: 17px;&quot;&gt;DMEUNDEPLOYFAILED&lt;/span&gt;&lt;/div&gt;" style="text;whiteSpace=wrap;html=1;fontSize=17;fontStyle=1;fontFamily=Times New Roman;align=center;horizontal=1;fontColor=#CC00CC;" vertex="1" parent="EyTT8lpdAKgMZ4VjWMC6-1">&#xa;          <mxGeometry x="458" y="1048" width="99" height="38" as="geometry"/>&#xa;        </mxCell>&#xa;        <mxCell id="SABqlHIYieWgqcJjw3hA-7" value="&lt;div style=&quot;background-color: rgb(255, 255, 255); font-size: 17px;&quot;&gt;&lt;span style=&quot;font-size: 17px;&quot;&gt;DMEUNDEPLOYED&lt;/span&gt;&lt;/div&gt;" style="text;whiteSpace=wrap;html=1;fontSize=17;fontStyle=1;fontFamily=Times New Roman;align=center;horizontal=1;fontColor=#CC00CC;" vertex="1" parent="EyTT8lpdAKgMZ4VjWMC6-1">&#xa;          <mxGeometry x="829" y="1179" width="99" height="38" as="geometry"/>&#xa;        </mxCell>&#xa;        <mxCell id="SABqlHIYieWgqcJjw3hA-11" value="" style="curved=1;endArrow=classic;html=1;rounded=0;fontSize=12;startSize=8;endSize=8;entryX=1;entryY=0.5;entryDx=0;entryDy=0;dashed=1;" edge="1" parent="EyTT8lpdAKgMZ4VjWMC6-1">&#xa;          <mxGeometry width="50" height="50" relative="1" as="geometry">&#xa;            <mxPoint x="797" y="1285" as="sourcePoint"/>&#xa;            <mxPoint x="853" y="561" as="targetPoint"/>&#xa;            <Array as="points">&#xa;              <mxPoint x="1024" y="1387"/>&#xa;              <mxPoint x="1019" y="737"/>&#xa;            </Array>&#xa;          </mxGeometry>&#xa;        </mxCell>&#xa;        <mxCell id="SABqlHIYieWgqcJjw3hA-16" value="" style="shape=link;html=1;rounded=0;fontSize=12;startSize=8;endSize=8;curved=1;" edge="1" parent="EyTT8lpdAKgMZ4VjWMC6-1">&#xa;          <mxGeometry width="100" relative="1" as="geometry">&#xa;            <mxPoint x="923.44" y="868" as="sourcePoint"/>&#xa;            <mxPoint x="664.31" y="866" as="targetPoint"/>&#xa;            <Array as="points">&#xa;              <mxPoint x="923.69" y="868"/>&#xa;            </Array>&#xa;          </mxGeometry>&#xa;        </mxCell>&#xa;        <mxCell id="SABqlHIYieWgqcJjw3hA-23" value="&lt;div style=&quot;background-color: rgb(255, 255, 255); font-size: 17px;&quot;&gt;&lt;span style=&quot;font-size: 17px;&quot;&gt;DMEDEPLOYED&lt;/span&gt;&lt;/div&gt;" style="text;whiteSpace=wrap;html=1;fontSize=17;fontStyle=1;fontFamily=Times New Roman;align=center;horizontal=1;fontColor=#CC00CC;" vertex="1" parent="EyTT8lpdAKgMZ4VjWMC6-1">&#xa;          <mxGeometry x="823" y="767" width="99" height="38" as="geometry"/>&#xa;        </mxCell>&#xa;        <mxCell id="SABqlHIYieWgqcJjw3hA-25" value="" style="endArrow=classic;html=1;rounded=0;fontSize=12;startSize=8;endSize=8;curved=1;entryX=0.5;entryY=0;entryDx=0;entryDy=0;dashed=1;" edge="1" parent="EyTT8lpdAKgMZ4VjWMC6-1" target="EyTT8lpdAKgMZ4VjWMC6-5">&#xa;          <mxGeometry width="50" height="50" relative="1" as="geometry">&#xa;            <mxPoint x="794" y="869" as="sourcePoint"/>&#xa;            <mxPoint x="702" y="962" as="targetPoint"/>&#xa;          </mxGeometry>&#xa;        </mxCell>&#xa;      </root>&#xa;    </mxGraphModel>&#xa;  </diagram><diagram id="iqw_mrV9lKbJkvdqUL_S" name="Entity Relationship"><mxGraphModel dx="669" dy="1053" grid="0" gridSize="10" guides="1" tooltips="1" connect="1" arrows="1" fold="1" page="0" pageScale="1" pageWidth="827" pageHeight="1169" math="0" shadow="0"><root><mxCell id="0"/><mxCell id="1" parent="0"/><mxCell id="MwSbNYkhp2zP1ZTl8Bha-4" value="rApp Instance" style="rounded=1;arcSize=10;whiteSpace=wrap;html=1;align=center;fontSize=16;fillColor=#f8cecc;strokeColor=#b85450;glass=0;shadow=0;" parent="1" vertex="1"><mxGeometry x="818" y="141" width="100" height="40" as="geometry"/></mxCell><mxCell id="MwSbNYkhp2zP1ZTl8Bha-5" value="rApp" style="rounded=1;arcSize=10;whiteSpace=wrap;html=1;align=center;fontSize=16;fillColor=#f8cecc;strokeColor=#b85450;glass=0;shadow=0;" parent="1" vertex="1"><mxGeometry x="75" y="141" width="105" height="40" as="geometry"/></mxCell><mxCell id="MwSbNYkhp2zP1ZTl8Bha-6" value="ACM Composition" style="rounded=1;arcSize=10;whiteSpace=wrap;html=1;align=center;fontSize=16;fillColor=#ffe6cc;strokeColor=#d79b00;glass=0;shadow=0;" parent="1" vertex="1"><mxGeometry x="421" y="-226" width="100" height="40" as="geometry"/></mxCell><mxCell id="MwSbNYkhp2zP1ZTl8Bha-7" value="ACM Composition&lt;br&gt;Instance" style="rounded=1;arcSize=10;whiteSpace=wrap;html=1;align=center;fontSize=16;fillColor=#ffe6cc;strokeColor=#d79b00;glass=0;shadow=0;" parent="1" vertex="1"><mxGeometry x="416" y="-139" width="100" height="62" as="geometry"/></mxCell><mxCell id="MwSbNYkhp2zP1ZTl8Bha-11" value="DME&lt;br style=&quot;border-color: var(--border-color);&quot;&gt;Info Producer" style="rounded=1;arcSize=10;whiteSpace=wrap;html=1;align=center;fontSize=16;fillColor=#ffff88;strokeColor=#36393d;glass=0;shadow=0;" parent="1" vertex="1"><mxGeometry x="416" y="-34" width="100" height="49" as="geometry"/></mxCell><mxCell id="MwSbNYkhp2zP1ZTl8Bha-13" value="SME Provider" style="rounded=1;arcSize=10;whiteSpace=wrap;html=1;align=center;fontSize=16;fillColor=#dae8fc;strokeColor=#6c8ebf;glass=0;shadow=0;" parent="1" vertex="1"><mxGeometry x="421" y="234" width="100" height="40" as="geometry"/></mxCell><mxCell id="MwSbNYkhp2zP1ZTl8Bha-14" value="SME &lt;br&gt;Service Api" style="rounded=1;arcSize=10;whiteSpace=wrap;html=1;align=center;fontSize=16;fillColor=#dae8fc;strokeColor=#6c8ebf;glass=0;shadow=0;" parent="1" vertex="1"><mxGeometry x="421" y="311" width="100" height="40" as="geometry"/></mxCell><mxCell id="MwSbNYkhp2zP1ZTl8Bha-15" value="" style="edgeStyle=orthogonalEdgeStyle;fontSize=12;html=1;endArrow=ERoneToMany;rounded=0;startSize=8;endSize=8;curved=1;exitX=0.5;exitY=0;exitDx=0;exitDy=0;entryX=0.006;entryY=0.384;entryDx=0;entryDy=0;entryPerimeter=0;" parent="1" source="MwSbNYkhp2zP1ZTl8Bha-5" target="MwSbNYkhp2zP1ZTl8Bha-7" edge="1"><mxGeometry width="100" height="100" relative="1" as="geometry"><mxPoint x="310" y="250" as="sourcePoint"/><mxPoint x="200" y="64" as="targetPoint"/></mxGeometry></mxCell><mxCell id="MwSbNYkhp2zP1ZTl8Bha-17" value="1..N" style="edgeLabel;html=1;align=center;verticalAlign=middle;resizable=0;points=[];fontSize=16;" parent="MwSbNYkhp2zP1ZTl8Bha-15" vertex="1" connectable="0"><mxGeometry x="0.0469" y="3" relative="1" as="geometry"><mxPoint x="165" y="8" as="offset"/></mxGeometry></mxCell><mxCell id="MwSbNYkhp2zP1ZTl8Bha-20" value="" style="edgeStyle=orthogonalEdgeStyle;fontSize=12;html=1;endArrow=ERmandOne;startArrow=ERmandOne;rounded=0;startSize=8;endSize=8;curved=1;exitX=0.5;exitY=0;exitDx=0;exitDy=0;entryX=0;entryY=0.5;entryDx=0;entryDy=0;" parent="1" source="MwSbNYkhp2zP1ZTl8Bha-5" target="MwSbNYkhp2zP1ZTl8Bha-6" edge="1"><mxGeometry width="100" height="100" relative="1" as="geometry"><mxPoint x="310" y="250" as="sourcePoint"/><mxPoint x="410" y="150" as="targetPoint"/></mxGeometry></mxCell><mxCell id="MwSbNYkhp2zP1ZTl8Bha-21" value="1..1" style="edgeLabel;html=1;align=center;verticalAlign=middle;resizable=0;points=[];fontSize=16;" parent="1" vertex="1" connectable="0"><mxGeometry x="351.9982392983694" y="6.003039352585901" as="geometry"><mxPoint x="-30" y="-205" as="offset"/></mxGeometry></mxCell><mxCell id="MwSbNYkhp2zP1ZTl8Bha-22" value="" style="edgeStyle=orthogonalEdgeStyle;fontSize=12;html=1;endArrow=ERoneToMany;rounded=0;startSize=8;endSize=8;curved=1;exitX=0.5;exitY=0;exitDx=0;exitDy=0;entryX=0;entryY=0.5;entryDx=0;entryDy=0;" parent="1" source="MwSbNYkhp2zP1ZTl8Bha-5" target="MwSbNYkhp2zP1ZTl8Bha-11" edge="1"><mxGeometry width="100" height="100" relative="1" as="geometry"><mxPoint x="157" y="120" as="sourcePoint"/><mxPoint x="451.5" y="-6" as="targetPoint"/></mxGeometry></mxCell><mxCell id="MwSbNYkhp2zP1ZTl8Bha-23" value="1..N" style="edgeLabel;html=1;align=center;verticalAlign=middle;resizable=0;points=[];fontSize=16;" parent="MwSbNYkhp2zP1ZTl8Bha-22" vertex="1" connectable="0"><mxGeometry x="0.0469" y="3" relative="1" as="geometry"><mxPoint x="113" y="7" as="offset"/></mxGeometry></mxCell><mxCell id="MwSbNYkhp2zP1ZTl8Bha-24" value="" style="edgeStyle=orthogonalEdgeStyle;fontSize=12;html=1;endArrow=ERoneToMany;rounded=0;startSize=8;endSize=8;curved=1;entryX=0;entryY=0.5;entryDx=0;entryDy=0;exitX=0.5;exitY=1;exitDx=0;exitDy=0;" parent="1" source="MwSbNYkhp2zP1ZTl8Bha-5" target="MwSbNYkhp2zP1ZTl8Bha-13" edge="1"><mxGeometry width="100" height="100" relative="1" as="geometry"><mxPoint x="174" y="237" as="sourcePoint"/><mxPoint x="352" y="348" as="targetPoint"/></mxGeometry></mxCell><mxCell id="MwSbNYkhp2zP1ZTl8Bha-25" value="1..N" style="edgeLabel;html=1;align=center;verticalAlign=middle;resizable=0;points=[];fontSize=16;" parent="MwSbNYkhp2zP1ZTl8Bha-24" vertex="1" connectable="0"><mxGeometry x="0.0469" y="3" relative="1" as="geometry"><mxPoint x="68" y="-6" as="offset"/></mxGeometry></mxCell><mxCell id="MwSbNYkhp2zP1ZTl8Bha-26" value="" style="edgeStyle=orthogonalEdgeStyle;fontSize=12;html=1;endArrow=ERoneToMany;rounded=0;startSize=8;endSize=8;curved=1;exitX=0.5;exitY=1;exitDx=0;exitDy=0;entryX=0;entryY=0.5;entryDx=0;entryDy=0;" parent="1" source="MwSbNYkhp2zP1ZTl8Bha-5" target="MwSbNYkhp2zP1ZTl8Bha-14" edge="1"><mxGeometry width="100" height="100" relative="1" as="geometry"><mxPoint x="130.99999999999994" y="251.99999999999994" as="sourcePoint"/><mxPoint x="372.21" y="421.2" as="targetPoint"/></mxGeometry></mxCell><mxCell id="MwSbNYkhp2zP1ZTl8Bha-27" value="1..N" style="edgeLabel;html=1;align=center;verticalAlign=middle;resizable=0;points=[];fontSize=16;" parent="MwSbNYkhp2zP1ZTl8Bha-26" vertex="1" connectable="0"><mxGeometry x="0.0469" y="3" relative="1" as="geometry"><mxPoint x="102" y="-10" as="offset"/></mxGeometry></mxCell><mxCell id="MwSbNYkhp2zP1ZTl8Bha-28" value="" style="edgeStyle=orthogonalEdgeStyle;fontSize=12;html=1;endArrow=ERoneToMany;rounded=0;startSize=8;endSize=8;curved=1;entryX=0;entryY=0.5;entryDx=0;entryDy=0;exitX=1;exitY=0.5;exitDx=0;exitDy=0;" parent="1" source="MwSbNYkhp2zP1ZTl8Bha-5" target="MwSbNYkhp2zP1ZTl8Bha-4" edge="1"><mxGeometry width="100" height="100" relative="1" as="geometry"><mxPoint x="314" y="249" as="sourcePoint"/><mxPoint x="414" y="149" as="targetPoint"/></mxGeometry></mxCell><mxCell id="MwSbNYkhp2zP1ZTl8Bha-29" value="1..N" style="edgeLabel;html=1;align=center;verticalAlign=middle;resizable=0;points=[];fontSize=16;" parent="1" vertex="1" connectable="0"><mxGeometry x="382.9968503216668" y="228.00044469513193" as="geometry"><mxPoint x="84" y="-70" as="offset"/></mxGeometry></mxCell><mxCell id="MwSbNYkhp2zP1ZTl8Bha-30" value="" style="edgeStyle=orthogonalEdgeStyle;fontSize=12;html=1;endArrow=ERmandOne;startArrow=ERmandOne;rounded=0;startSize=8;endSize=8;exitX=1;exitY=0.5;exitDx=0;exitDy=0;entryX=0.5;entryY=0;entryDx=0;entryDy=0;curved=1;" parent="1" source="MwSbNYkhp2zP1ZTl8Bha-6" target="MwSbNYkhp2zP1ZTl8Bha-4" edge="1"><mxGeometry width="100" height="100" relative="1" as="geometry"><mxPoint x="561" y="46" as="sourcePoint"/><mxPoint x="739" y="-100" as="targetPoint"/></mxGeometry></mxCell><mxCell id="MwSbNYkhp2zP1ZTl8Bha-31" value="" style="edgeStyle=orthogonalEdgeStyle;fontSize=12;html=1;endArrow=ERmandOne;startArrow=ERmandOne;rounded=0;startSize=8;endSize=8;exitX=1;exitY=0.5;exitDx=0;exitDy=0;entryX=0.5;entryY=0;entryDx=0;entryDy=0;curved=1;" parent="1" source="MwSbNYkhp2zP1ZTl8Bha-7" target="MwSbNYkhp2zP1ZTl8Bha-4" edge="1"><mxGeometry width="100" height="100" relative="1" as="geometry"><mxPoint x="543" y="78" as="sourcePoint"/><mxPoint x="718" y="224" as="targetPoint"/></mxGeometry></mxCell><mxCell id="MwSbNYkhp2zP1ZTl8Bha-32" value="" style="edgeStyle=orthogonalEdgeStyle;fontSize=12;html=1;endArrow=ERmandOne;startArrow=ERmandOne;rounded=0;startSize=8;endSize=8;curved=1;entryX=0.5;entryY=0;entryDx=0;entryDy=0;" parent="1" source="MwSbNYkhp2zP1ZTl8Bha-11" target="MwSbNYkhp2zP1ZTl8Bha-4" edge="1"><mxGeometry width="100" height="100" relative="1" as="geometry"><mxPoint x="551" y="210" as="sourcePoint"/><mxPoint x="728" y="268" as="targetPoint"/></mxGeometry></mxCell><mxCell id="MwSbNYkhp2zP1ZTl8Bha-33" value="" style="edgeStyle=orthogonalEdgeStyle;fontSize=12;html=1;endArrow=ERmandOne;startArrow=ERmandOne;rounded=0;startSize=8;endSize=8;curved=1;entryX=0.5;entryY=1;entryDx=0;entryDy=0;" parent="1" source="MwSbNYkhp2zP1ZTl8Bha-13" target="MwSbNYkhp2zP1ZTl8Bha-4" edge="1"><mxGeometry width="100" height="100" relative="1" as="geometry"><mxPoint x="569" y="296" as="sourcePoint"/><mxPoint x="746" y="354" as="targetPoint"/></mxGeometry></mxCell><mxCell id="MwSbNYkhp2zP1ZTl8Bha-34" value="" style="edgeStyle=orthogonalEdgeStyle;fontSize=12;html=1;endArrow=ERmandOne;startArrow=ERmandOne;rounded=0;startSize=8;endSize=8;curved=1;exitX=1;exitY=0.5;exitDx=0;exitDy=0;" parent="1" source="MwSbNYkhp2zP1ZTl8Bha-14" target="MwSbNYkhp2zP1ZTl8Bha-4" edge="1"><mxGeometry width="100" height="100" relative="1" as="geometry"><mxPoint x="571" y="364" as="sourcePoint"/><mxPoint x="690" y="184" as="targetPoint"/></mxGeometry></mxCell><mxCell id="MwSbNYkhp2zP1ZTl8Bha-36" value="1..1" style="edgeLabel;html=1;align=center;verticalAlign=middle;resizable=0;points=[];fontSize=16;" parent="1" vertex="1" connectable="0"><mxGeometry x="624.9982392983694" y="-3.996960647414099" as="geometry"><mxPoint x="-13" y="-9" as="offset"/></mxGeometry></mxCell><mxCell id="MwSbNYkhp2zP1ZTl8Bha-37" value="1..1" style="edgeLabel;html=1;align=center;verticalAlign=middle;resizable=0;points=[];fontSize=16;" parent="1" vertex="1" connectable="0"><mxGeometry x="624.9982392983694" y="257.0030393525859" as="geometry"><mxPoint x="-13" y="-9" as="offset"/></mxGeometry></mxCell><mxCell id="MwSbNYkhp2zP1ZTl8Bha-38" value="1..1" style="edgeLabel;html=1;align=center;verticalAlign=middle;resizable=0;points=[];fontSize=16;" parent="1" vertex="1" connectable="0"><mxGeometry x="624.9982392983694" y="333.0030393525859" as="geometry"><mxPoint x="-13" y="-9" as="offset"/></mxGeometry></mxCell><mxCell id="5RuYRl4ZCnVYUHxBw5YV-1" value="SME&amp;nbsp;&lt;br&gt;Invoker" style="rounded=1;arcSize=10;whiteSpace=wrap;html=1;align=center;fontSize=16;fillColor=#cce5ff;strokeColor=#36393d;glass=0;shadow=0;" parent="1" vertex="1"><mxGeometry x="421" y="396" width="100" height="40" as="geometry"/></mxCell><mxCell id="5RuYRl4ZCnVYUHxBw5YV-2" value="DME &lt;br&gt;Info Consumer" style="rounded=1;arcSize=10;whiteSpace=wrap;html=1;align=center;fontSize=16;fillColor=#ffff88;strokeColor=#36393d;glass=0;shadow=0;" parent="1" vertex="1"><mxGeometry x="421" y="42" width="100" height="62" as="geometry"/></mxCell><mxCell id="5RuYRl4ZCnVYUHxBw5YV-3" value="" style="edgeStyle=orthogonalEdgeStyle;fontSize=12;html=1;endArrow=ERmandOne;startArrow=ERmandOne;rounded=0;startSize=8;endSize=8;curved=1;entryX=0.5;entryY=0;entryDx=0;entryDy=0;" parent="1" source="5RuYRl4ZCnVYUHxBw5YV-2" target="MwSbNYkhp2zP1ZTl8Bha-4" edge="1"><mxGeometry width="100" height="100" relative="1" as="geometry"><mxPoint x="523" y="516" as="sourcePoint"/><mxPoint x="696" y="179" as="targetPoint"/></mxGeometry></mxCell><mxCell id="5RuYRl4ZCnVYUHxBw5YV-4" value="" style="edgeStyle=orthogonalEdgeStyle;fontSize=12;html=1;endArrow=ERmandOne;startArrow=ERmandOne;rounded=0;startSize=8;endSize=8;curved=1;exitX=1;exitY=0.5;exitDx=0;exitDy=0;entryX=0.5;entryY=1;entryDx=0;entryDy=0;" parent="1" source="5RuYRl4ZCnVYUHxBw5YV-1" target="MwSbNYkhp2zP1ZTl8Bha-4" edge="1"><mxGeometry width="100" height="100" relative="1" as="geometry"><mxPoint x="533" y="526" as="sourcePoint"/><mxPoint x="697" y="185" as="targetPoint"/></mxGeometry></mxCell><mxCell id="5RuYRl4ZCnVYUHxBw5YV-5" value="1..1" style="edgeLabel;html=1;align=center;verticalAlign=middle;resizable=0;points=[];fontSize=16;" parent="1" vertex="1" connectable="0"><mxGeometry x="624.9982392983694" y="416.0030393525859" as="geometry"><mxPoint x="-13" y="-9" as="offset"/></mxGeometry></mxCell><mxCell id="5RuYRl4ZCnVYUHxBw5YV-7" value="" style="edgeStyle=orthogonalEdgeStyle;fontSize=12;html=1;endArrow=ERoneToMany;rounded=0;startSize=8;endSize=8;curved=1;exitX=0.5;exitY=1;exitDx=0;exitDy=0;entryX=0;entryY=0.5;entryDx=0;entryDy=0;" parent="1" source="MwSbNYkhp2zP1ZTl8Bha-5" target="5RuYRl4ZCnVYUHxBw5YV-1" edge="1"><mxGeometry width="100" height="100" relative="1" as="geometry"><mxPoint x="90" y="288" as="sourcePoint"/><mxPoint x="270" y="476" as="targetPoint"/></mxGeometry></mxCell><mxCell id="5RuYRl4ZCnVYUHxBw5YV-8" value="1..N" style="edgeLabel;html=1;align=center;verticalAlign=middle;resizable=0;points=[];fontSize=16;" parent="5RuYRl4ZCnVYUHxBw5YV-7" vertex="1" connectable="0"><mxGeometry x="0.0469" y="3" relative="1" as="geometry"><mxPoint x="137" y="-14" as="offset"/></mxGeometry></mxCell><mxCell id="5RuYRl4ZCnVYUHxBw5YV-9" value="" style="edgeStyle=orthogonalEdgeStyle;fontSize=12;html=1;endArrow=ERoneToMany;rounded=0;startSize=8;endSize=8;curved=1;exitX=0.5;exitY=0;exitDx=0;exitDy=0;entryX=0;entryY=0.5;entryDx=0;entryDy=0;" parent="1" source="MwSbNYkhp2zP1ZTl8Bha-5" target="5RuYRl4ZCnVYUHxBw5YV-2" edge="1"><mxGeometry width="100" height="100" relative="1" as="geometry"><mxPoint x="170" y="202" as="sourcePoint"/><mxPoint x="464.5" y="136" as="targetPoint"/></mxGeometry></mxCell><mxCell id="5RuYRl4ZCnVYUHxBw5YV-10" value="1..N" style="edgeLabel;html=1;align=center;verticalAlign=middle;resizable=0;points=[];fontSize=16;" parent="5RuYRl4ZCnVYUHxBw5YV-9" vertex="1" connectable="0"><mxGeometry x="0.0469" y="3" relative="1" as="geometry"><mxPoint x="70" y="3" as="offset"/></mxGeometry></mxCell><mxCell id="5RuYRl4ZCnVYUHxBw5YV-13" value="1..1" style="edgeLabel;html=1;align=center;verticalAlign=middle;resizable=0;points=[];fontSize=16;" parent="1" vertex="1" connectable="0"><mxGeometry x="624.9982392983694" y="77.0030393525859" as="geometry"><mxPoint x="-13" y="-9" as="offset"/></mxGeometry></mxCell><mxCell id="5RuYRl4ZCnVYUHxBw5YV-14" value="1..1" style="edgeLabel;html=1;align=center;verticalAlign=middle;resizable=0;points=[];fontSize=16;" parent="1" vertex="1" connectable="0"><mxGeometry x="624.9982392983694" y="-191.99696064741408" as="geometry"><mxPoint x="-13" y="-9" as="offset"/></mxGeometry></mxCell><mxCell id="5RuYRl4ZCnVYUHxBw5YV-15" value="1..1" style="edgeLabel;html=1;align=center;verticalAlign=middle;resizable=0;points=[];fontSize=16;" parent="1" vertex="1" connectable="0"><mxGeometry x="626.9982392983694" y="-101.99696064741408" as="geometry"><mxPoint x="-13" y="-9" as="offset"/></mxGeometry></mxCell></root></mxGraphModel></diagram></mxfile>